<svg xmlns="http://www.w3.org/2000/svg" width="18" height="19" viewBox="0 0 18 19">
    <title>Bonus account type icon</title>
    <path fill="#FFF" fill-rule="nonzero" d="M17.769 10.183l-.278-.379a1.193 1.193 0 0 1-.012-1.392l.271-.382a1.19 1.19 0 0 0-.412-1.74l-.415-.223a1.191 1.191 0 0 1-.613-1.251l.078-.464A1.194 1.194 0 0 0 15.26 2.96l-.468-.018a1.19 1.19 0 0 1-1.094-.861l-.13-.453a1.194 1.194 0 0 0-1.619-.765l-.43.186a1.194 1.194 0 0 1-1.362-.3l-.312-.35a1.194 1.194 0 0 0-1.792.012l-.308.352a1.192 1.192 0 0 1-1.355.32L5.956.903a1.193 1.193 0 0 0-1.607.79l-.123.453a1.193 1.193 0 0 1-1.084.876l-.467.026a1.194 1.194 0 0 0-1.106 1.407l.085.46a1.194 1.194 0 0 1-.594 1.258l-.412.227a1.195 1.195 0 0 0-.386 1.748l.279.378c.3.416.308.976.011 1.392l-.271.382a1.19 1.19 0 0 0 .412 1.74l.416.224c.452.24.697.746.612 1.25l-.078.464a1.194 1.194 0 0 0 1.128 1.392l.468.019a1.19 1.19 0 0 1 1.095.86l.13.453c.2.69.957 1.047 1.618.765l.43-.186a1.194 1.194 0 0 1 1.362.301l.312.349a1.193 1.193 0 0 0 1.789-.015l.308-.353a1.192 1.192 0 0 1 1.355-.319l.434.178a1.193 1.193 0 0 0 1.607-.79l.122-.453a1.193 1.193 0 0 1 1.084-.876l.468-.026a1.194 1.194 0 0 0 1.106-1.406l-.086-.46a1.194 1.194 0 0 1 .594-1.259l.412-.226c.631-.345.813-1.165.39-1.744zm-6.543 2.026a2.506 2.506 0 0 1-1.284.824c-.223.06-.323.178-.312.408.011.226 0 .457 0 .683 0 .204-.104.312-.304.315-.245.008-.49.008-.735 0-.216-.003-.316-.126-.32-.334-.003-.167-.003-.334-.003-.497-.004-.367-.015-.382-.368-.438-.452-.07-.894-.174-1.306-.375-.323-.156-.356-.237-.263-.579.07-.252.137-.508.218-.757.093-.29.171-.326.438-.189.457.237.943.371 1.452.434.326.041.649.008.953-.126.568-.249.657-.906.179-1.299a2.338 2.338 0 0 0-.542-.32c-.498-.218-1.017-.385-1.485-.667-.76-.457-1.243-1.08-1.188-2.008.064-1.047.657-1.7 1.615-2.049.397-.144.397-.137.4-.553v-.419c.008-.312.06-.367.372-.375.096-.004.193 0 .29 0 .66 0 .66 0 .664.66.003.468 0 .472.467.543.357.055.698.163 1.028.308.182.081.253.207.197.4-.082.286-.16.576-.252.858-.086.267-.171.308-.43.182a3.293 3.293 0 0 0-1.63-.323c-.149.007-.297.03-.434.089-.494.215-.576.76-.152 1.095.211.17.456.293.708.397.438.182.876.352 1.292.582 1.31.739 1.666 2.398.735 3.53z"/>
</svg>
