<svg xmlns="http://www.w3.org/2000/svg" width="18" height="18" viewBox="0 0 18 18">
    <title>Mortgage account type icon</title>
    <path fill="#FFF" fill-rule="nonzero" d="M8.785.024a.357.357 0 0 0-.204.048L.156 5.816C.079 5.893 0 6.013 0 6.128v.766c0 .23.153.383.383.383h.766c.077 0 .15-.034.227-.072L8.81 2.07l7.432 5.135c.076.038.15.072.227.072h.766c.23 0 .385-.154.347-.383v-.766a.359.359 0 0 0-.155-.312L9 .072a.398.398 0 0 0-.215-.048zm.024 2.968l-7.014 4.86a1.274 1.274 0 0 1-.646.19v9.192c0 .23.153.383.383.383h14.553c.23 0 .383-.153.383-.383V8.043c-.23 0-.455-.077-.646-.192L8.809 2.992zm-.42 3.136h.767v.802c1.263.114 2.104.923 2.142 2.034h-.886c-.038-.651-.605-1.233-1.64-1.233-1.033 0-1.615.546-1.615 1.197.038 1.8 4.332.646 4.332 3.519 0 1.225-.842 1.989-2.298 2.142v.73h-.765v-.73c-1.417-.115-2.296-.921-2.334-2.07h.873c.039.689.774 1.304 1.808 1.304s1.759-.49 1.759-1.257c0-1.991-4.285-.658-4.285-3.53 0-1.149.802-1.917 2.143-2.07v-.838z"/>
</svg>
