<svg xmlns="http://www.w3.org/2000/svg" width="30" height="30" viewBox="0 0 18 18">
    <title>Savings account type icon</title>
    <path fill="#FFF" fill-rule="nonzero" d="M6.457.22a2.938 2.938 0 0 0-2.935 2.935c0 .442.103.866.293 1.26 1.434-.87 3.041-1.309 4.892-1.309.23 0 .455.023.684.037A2.942 2.942 0 0 0 6.457.22zm7.349 1.724a.42.42 0 0 0-.11.013c-1.332.334-2.279 1.034-2.874 2.152a10.232 10.232 0 0 0-2.115-.22c-2.061 0-3.801.576-5.308 1.748-.717.559-1.246 1.306-1.577 2.19-.31-.109-1.04-.442-1.04-1.26 0-.423.199-.776.526-.918a.392.392 0 0 0-.305-.721C.393 5.191 0 5.838 0 6.567c0 1.19.957 1.805 1.602 2.017a7.158 7.158 0 0 0-.171 1.896c.076 1.811 1.378 3.115 2.176 3.754.11.084.107.08.074.183-.12.37-.336.9-.343.917-.101.266-.092.56.025.82.116.26.32.448.587.55l1.26.477c.533.203 1.18-.082 1.381-.612 0 0 .157-.43.294-.795.013-.036.027-.065.036-.085.055.008.14.02.22.037.317.066.795.17 1.566.17.693 0 1.156-.052 1.467-.085.145-.015.255-.037.342-.037.006.013.018.03.025.05.125.376.28.745.281.745.155.412.55.685.99.685.13 0 .259-.028.38-.073l1.26-.477c.266-.102.47-.29.586-.55.117-.26.125-.557.024-.82l-.195-.526a.285.285 0 0 0-.025-.048s.008-.026.074-.062a5.056 5.056 0 0 0 2.14-2.274c.087-.183.124-.232.281-.232h.636c.566 0 1.027-.461 1.027-1.028V9.257c0-.568-.461-1.027-1.027-1.027h-.636c-.068 0-.11-.016-.135-.025-.11-.63-.603-2.443-2.653-3.29.023-.755.215-1.374.611-2.445a.402.402 0 0 0-.073-.403.386.386 0 0 0-.281-.123zm-.318 6.31c.413 0 .746.333.746.746a.755.755 0 0 1-.746.758.754.754 0 0 1-.746-.758c0-.413.331-.746.746-.746z"/>
</svg>
