<svg width="22px" height="23px" viewBox="0 0 22 23" version="1.1" xmlns="http://www.w3.org/2000/svg" xmlns:xlink="http://www.w3.org/1999/xlink">
    <title>General account type icon</title>
    <g id="STATS-2018" stroke="none" stroke-width="1" fill="none" fill-rule="evenodd">
        <g id="account-icons" transform="translate(-63.000000, -292.000000)" fill="#FFFFFF" fill-rule="nonzero">
            <path d="M79.0907738,292 C78.702631,292 78.2429881,292.082298 77.6175595,292.250909 C76.0414167,292.67538 66.8044286,295.287511 66.6666667,295.328727 C65.2953333,295.856506 64.4276429,296.375052 63.8839286,296.984727 C64.5214048,296.543663 65.2838095,296.265455 66.1428571,296.265455 L80.8095238,296.265455 L80.8095238,294.475636 C80.8095238,293.609565 80.803631,292 79.0907738,292 Z M66.1428571,297.336 C64.1958571,297.336 63,299.206778 63,300.547636 L63,311.989091 C63,313.646295 64.3247143,315 65.9464286,315 L82.0535714,315 C83.6752857,315 85,313.646295 85,311.989091 L85,300.464 C85,298.826601 83.5024286,297.336 81.8571429,297.336 L66.1428571,297.336 Z M81.0714286,304.829818 C81.7927143,304.829818 82.3809524,305.428788 82.3809524,306.168 C82.3809524,306.907212 81.7927143,307.506182 81.0714286,307.506182 C80.3480476,307.506182 79.7619048,306.907212 79.7619048,306.168 C79.7619048,305.428788 80.3480476,304.829818 81.0714286,304.829818 Z" id="General_account_ic"></path>
        </g>
    </g>
</svg>