<svg xmlns="http://www.w3.org/2000/svg" width="30" height="30" viewBox="0 0 18 15">
    <title>Credit account type icon</title>
    <g fill="currentColor" fill-rule="nonzero">
        <path d="M17.963 1.685c0-.898-.727-1.625-1.625-1.625H1.625C.728.06 0 .787 0 1.685v1.743h17.963V1.685zM17.963 12.544V6.123H0v6.421c0 .898.728 1.625 1.625 1.625h14.713c.898 0 1.625-.727 1.625-1.625zm-13.94-1.788h-2.62v-1.22h2.62v1.22zm3.93 0h-2.62v-1.22h2.62v1.22zm3.93 0h-2.62v-1.22h2.62v1.22zm3.929 0h-2.62v-1.22h2.62v1.22z"/>
    </g>
</svg>
